<svg width="512" height="512" viewBox="0 0 135.47 135.47" xmlns="http://www.w3.org/2000/svg"><g fill="#fff" stroke="#000" stroke-linecap="round" stroke-linejoin="round" stroke-width="2"><path d="M19.576 2.523v130.39h97.361V2.733z" paint-order="markers fill stroke"/><path d="M25.273 9.918h85.595M25.273 16.353h85.595M25.273 22.789h85.595M25.273 29.224h85.595M25.273 35.659h85.595M25.273 42.095h85.595M25.273 48.53h85.595M25.273 54.965h85.595M25.273 61.401h85.595M25.273 67.836h85.595M25.273 74.272h85.595M25.273 80.707h85.595M25.273 87.142h85.595M25.273 93.578h85.595M25.273 100.01h85.595M25.273 106.45h85.595M25.273 112.88h85.595M25.273 119.32h85.595M25.273 125.75h85.595"/></g></svg>