<?xml version="1.0" encoding="UTF-8"?>
<!-- Created with Inkscape (http://www.inkscape.org/) -->
<svg width="512" height="512" inkscape:version="1.1 (c4e8f9ed74, 2021-05-24)" sodipodi:docname="paper.svg" version="1.1" viewBox="0 0 135.47 135.47" xmlns="http://www.w3.org/2000/svg" xmlns:inkscape="http://www.inkscape.org/namespaces/inkscape" xmlns:sodipodi="http://sodipodi.sourceforge.net/DTD/sodipodi-0.dtd">
 <sodipodi:namedview width="512px" bordercolor="#666666" borderopacity="1.0" inkscape:current-layer="layer1" inkscape:cx="210.38802" inkscape:cy="236.39103" inkscape:document-units="mm" inkscape:object-paths="true" inkscape:pagecheckerboard="0" inkscape:pageopacity="0.0" inkscape:pageshadow="2" inkscape:snap-intersection-paths="true" inkscape:snap-midpoints="true" inkscape:snap-smooth-nodes="true" inkscape:window-height="1046" inkscape:window-maximized="1" inkscape:window-width="1920" inkscape:window-x="0" inkscape:window-y="34" inkscape:zoom="1.4805976" pagecolor="#ffffff" showgrid="false" units="px"/>
 <g fill="none" stroke="#000" stroke-linecap="round" stroke-linejoin="round" stroke-width="2" inkscape:groupmode="layer" inkscape:label="Layer 1">
  <path d="m19.576 2.5235v130.39h97.361v-130.18z" style="paint-order:markers fill stroke"/>
  <path d="m25.273 9.9178h85.595"/>
  <path d="m25.273 16.353h85.595"/>
  <path d="m25.273 22.789h85.595"/>
  <path d="m25.273 29.224h85.595"/>
  <path d="m25.273 35.659h85.595"/>
  <path d="m25.273 42.095h85.595"/>
  <path d="m25.273 48.53h85.595"/>
  <path d="m25.273 54.965h85.595"/>
  <path d="m25.273 61.401h85.595"/>
  <path d="m25.273 67.836h85.595"/>
  <path d="m25.273 74.272h85.595"/>
  <path d="m25.273 80.707h85.595"/>
  <path d="m25.273 87.142h85.595"/>
  <path d="m25.273 93.578h85.595"/>
  <path d="m25.273 100.01h85.595"/>
  <path d="m25.273 106.45h85.595"/>
  <path d="m25.273 112.88h85.595"/>
  <path d="m25.273 119.32h85.595"/>
  <path d="m25.273 125.75h85.595"/>
 </g>
</svg>
