<svg width="512" height="512" version="1.1" viewBox="0 0 135.47 135.47" xmlns="http://www.w3.org/2000/svg">
  <g stroke="#000">
    <circle cx="27.593" cy="35.202" r="22.668" fill="none" stroke-width="9.1935" />
    <circle cx="27.264" cy="93.651" r="22.668" fill="none" stroke-width="9.1935" />
    <path d="m49.764 35.43-5.4843 9.8117 38.485 21.512 11.518-6.4386zm44.519 24.886 11.518 6.4386 22.518-12.587s9.6478-5.393 5.6351-16.027zm11.518 6.4386-11.518 6.4386 39.279 21.957c4.0126-10.634-5.6351-16.027-5.6351-16.027zm-11.518 6.4386-11.518-6.4386-38.094 21.294 5.4849 9.8111zm-0.46084-10.17a3.7886 3.7886 0 0 0-3.7888 3.7888 3.7886 3.7886 0 0 0 3.7888 3.7882 3.7886 3.7886 0 0 0 3.7882-3.7882 3.7886 3.7886 0 0 0-3.7882-3.7888z" fill="#000008" stroke-width=".30405px" />
  </g>
</svg>