<svg width="512" height="512" viewBox="0 0 135.47 135.47" xmlns="http://www.w3.org/2000/svg"><g stroke="#000"><circle cx="27.593" cy="35.202" r="22.668" fill="none" stroke-width="9.194"/><circle cx="27.264" cy="93.651" r="22.668" fill="none" stroke-width="9.194"/><path d="M49.764 35.43l-5.484 9.812 38.485 21.512 11.518-6.439zm44.519 24.886l11.518 6.439 22.518-12.587s9.648-5.393 5.635-16.027zm11.518 6.439l-11.518 6.438 39.279 21.957c4.013-10.634-5.635-16.027-5.635-16.027zm-11.518 6.438l-11.518-6.438-38.094 21.294 5.485 9.81zm-.46-10.17a3.789 3.789 0 00-3.79 3.789 3.789 3.789 0 003.79 3.788 3.789 3.789 0 003.787-3.788 3.789 3.789 0 00-3.788-3.789z" fill="#000008" stroke-width=".304"/></g></svg>